<?xml version="1.0" standalone="no"?>
<!DOCTYPE svg PUBLIC "-//W3C//DTD SVG 20010904//EN"
 "http://www.w3.org/TR/2001/REC-SVG-20010904/DTD/svg10.dtd">
<svg version="1.0" xmlns="http://www.w3.org/2000/svg"
 width="300.000000pt" height="300.000000pt" viewBox="0 0 300.000000 300.000000"
 preserveAspectRatio="xMidYMid meet">
<metadata>
Created by potrace 1.14, written by Peter Selinger 2001-2017
</metadata>
<g transform="translate(0.000000,300.000000) scale(0.100000,-0.100000)"
fill="#000000" stroke="none">
<path d="M1450 2383 c-43 -13 -67 -29 -113 -75 -32 -33 -55 -63 -52 -68 3 -5
1 -11 -4 -14 -5 -4 -27 -41 -49 -84 -22 -42 -51 -97 -64 -122 -13 -25 -25 -47
-28 -50 -6 -6 -70 -129 -139 -265 -25 -49 -48 -92 -51 -95 -5 -5 -100 -188
-129 -247 -8 -18 -18 -33 -22 -33 -6 0 -19 39 -25 75 -1 6 -3 13 -4 18 -1 4
-3 10 -4 15 -2 4 -8 27 -15 52 -7 25 -15 52 -16 60 -5 21 -52 199 -64 238 -5
17 -8 32 -6 32 2 0 -5 24 -16 52 -10 29 -19 62 -19 73 -1 11 -7 38 -16 60 -8
22 -17 55 -20 73 -3 19 -12 53 -20 75 -8 23 -17 57 -20 75 -3 19 -12 51 -19
72 -7 21 -11 41 -8 44 4 3 -114 6 -261 6 l-267 0 2 -52 c1 -29 9 -71 17 -93 8
-22 15 -49 17 -60 2 -11 12 -46 23 -77 11 -32 19 -58 16 -58 -2 0 5 -24 16
-52 10 -29 22 -68 25 -87 3 -19 8 -38 11 -42 2 -4 18 -57 34 -116 17 -59 35
-121 41 -138 6 -16 11 -34 12 -40 2 -5 6 -16 10 -22 5 -7 6 -13 3 -13 -3 0 2
-21 10 -47 8 -27 18 -61 21 -78 3 -16 12 -43 20 -58 8 -16 12 -31 9 -35 -3 -3
-1 -11 5 -19 6 -7 9 -13 5 -13 -3 0 1 -17 9 -37 13 -34 44 -137 49 -167 2 -6
10 -38 20 -71 61 -212 97 -279 176 -323 133 -73 294 -55 395 45 30 31 181 281
178 295 -2 4 2 8 7 8 6 0 10 4 10 9 0 5 38 77 85 160 88 156 130 233 198 361
80 151 122 224 132 227 6 1 21 -19 34 -45 22 -45 222 -411 241 -442 5 -8 21
-37 34 -63 14 -26 44 -79 66 -117 22 -37 40 -73 40 -79 0 -6 5 -11 10 -11 6 0
10 -4 10 -9 0 -5 25 -53 55 -106 30 -54 55 -100 55 -104 0 -17 96 -113 138
-137 43 -26 56 -28 148 -29 93 0 104 2 160 31 35 18 72 48 91 72 26 34 71 145
88 218 12 49 49 172 61 201 8 17 14 38 14 45 0 8 9 40 19 71 11 32 18 57 16
57 -2 0 3 16 11 35 7 19 17 51 20 72 3 21 9 43 14 48 4 6 11 26 16 45 10 45 8
38 24 90 7 25 13 48 12 52 -1 4 5 23 13 42 9 20 12 36 9 36 -4 0 -1 7 6 15 11
13 10 14 -5 9 -11 -4 -16 -3 -13 2 7 10 -77 14 -337 17 l-149 2 -14 -45 c-16
-55 -22 -78 -27 -110 -2 -14 -10 -44 -19 -67 -8 -22 -12 -43 -10 -46 3 -2 -2
-22 -11 -44 -9 -22 -17 -51 -19 -64 -2 -13 -7 -37 -11 -52 -7 -26 -8 -27 -20
-10 -6 10 -50 92 -97 183 -47 91 -112 215 -144 275 -113 214 -163 311 -189
365 -35 74 -100 155 -152 191 -24 17 -43 27 -43 24 0 -3 -9 -1 -21 5 -36 20
-168 21 -229 3z"/>
</g>
</svg>
