<svg xmlns="http://www.w3.org/2000/svg" viewBox="0 0 100 100"><defs><style>.cls-1{fill:none;}</style></defs><g id="Layer_2" data-name="Layer 2"><g id="Layer_1-2" data-name="Layer 1"><path d="M79.35,32.32a4.47,4.47,0,0,0-.44-.43l-1.24-1.14a4,4,0,0,1-1-4.46l.56-1.44a3.9,3.9,0,0,0-2-5.13l-.51-.18-1.52-.38a4,4,0,0,1-2.84-3.6V13.94a3.94,3.94,0,0,0-4.1-3.75l-.47.05-1.53.25a3.77,3.77,0,0,1-4.1-2l-.74-1.28A3.92,3.92,0,0,0,54,5.59l-.39.24-1.24.86a4,4,0,0,1-4.54,0l-1.24-1a3.94,3.94,0,0,0-5.51.92,4.08,4.08,0,0,0-.28.44l-.76,1.37a4,4,0,0,1-4.18,2l-1.53-.3a4,4,0,0,0-4.62,3.31c0,.12,0,.23,0,.35l-.08,1.51A4,4,0,0,1,26.77,19l-1.52.48a3.93,3.93,0,0,0-2.74,4.83c0,.17.11.33.17.49l.58,1.44a4,4,0,0,1-1.05,4.44l-1.12,1.05a3.87,3.87,0,0,0-.42,5.47,2.78,2.78,0,0,0,.42.42l1.13,1a4,4,0,0,1,1.05,4.47l-.57,1.36a3.93,3.93,0,0,0,2,5.18,4,4,0,0,0,.55.19l1.52.39a4,4,0,0,1,2.86,3.62l.08,1.52a3.93,3.93,0,0,0,4.57,3.7l1.51-.29a3.79,3.79,0,0,1,4.1,2l.77,1.36A3.91,3.91,0,0,0,46,63.72a3.07,3.07,0,0,0,.39-.23l1.24-.86a4.08,4.08,0,0,1,4.56,0l1.24.95a4,4,0,0,0,5.52-.94,3,3,0,0,0,.27-.42L60,60.85a3.92,3.92,0,0,1,4.1-2l1.52.28a4,4,0,0,0,4.66-3.24,3.87,3.87,0,0,0,.06-.46l.09-1.52a4,4,0,0,1,2.85-3.6l1.53-.38a3.93,3.93,0,0,0,2.69-4.86,3.12,3.12,0,0,0-.15-.43l-.56-1.37a4,4,0,0,1,1-4.47l1.14-1A3.89,3.89,0,0,0,79.35,32.32ZM50,53.76A19.09,19.09,0,0,1,30.9,34.68v0A19.1,19.1,0,1,1,50,53.76Z"/><path d="M20.12,87.36l9.32-23.25a9.84,9.84,0,0,0,4.09,1,10.08,10.08,0,0,0,1.73-.2h.18l.09.2A9.66,9.66,0,0,0,44.09,70a9.51,9.51,0,0,0,2.85-.47l-9.78,24.6a.94.94,0,0,1-1.22.55.89.89,0,0,1-.5-.45L30.79,86a.64.64,0,0,0-.77-.29l-8.73,2.74A.88.88,0,0,1,20.14,88,.87.87,0,0,1,20.12,87.36Z"/><path d="M62.77,94.39l-9.88-24.7a10.18,10.18,0,0,0,2.85.47,9.58,9.58,0,0,0,8.55-5l.09-.2h.19a10,10,0,0,0,1.71.2,10.63,10.63,0,0,0,4.19-1l9.29,23.46a.9.9,0,0,1-1.13,1.24l-8.75-2.74a.62.62,0,0,0-.75.29l-4.66,8.2a1,1,0,0,1-1.46.09,1.15,1.15,0,0,1-.25-.33Z"/><path d="M50,20.78A13.88,13.88,0,1,0,63.87,34.67h0A13.88,13.88,0,0,0,50,20.78Zm1,17.48L47.92,41.4l-3.13-3.14-3-3,3.13-3.13,3,3,7.22-7.22L58.27,31Z"/><rect class="cls-1" width="100" height="100"/></g></g></svg>