<svg xmlns="http://www.w3.org/2000/svg" viewBox="0 0 100 100"><defs><style>.cls-1{fill:none;}</style></defs><g id="Layer_2" data-name="Layer 2"><g id="Layer_1-2" data-name="Layer 1"><g id="Layer_1-3" data-name="Layer 1"><circle id="Ellipse_1" data-name="Ellipse 1" cx="36.32" cy="11.42" r="6.42"/><circle id="Ellipse_2" data-name="Ellipse 2" cx="55.98" cy="15.74" r="6.15"/><path id="Path_42" data-name="Path 42" d="M38.94,19l-2,.6h-.07a.52.52,0,0,0-.43-.23.56.56,0,0,0-.45.26h-.15L33.73,19a.36.36,0,0,0-.36.36V21.2a.34.34,0,0,0,.34.3l2.06-.57a.43.43,0,0,0,.16,0,.56.56,0,0,0,.45.26.55.55,0,0,0,.41-.22h.09l2.06.53a.36.36,0,0,0,.36-.35V19.36a.36.36,0,0,0-.36-.36Z"/><circle id="Ellipse_3" data-name="Ellipse 3" cx="36.32" cy="24.13" r="0.95"/><circle id="Ellipse_4" data-name="Ellipse 4" cx="36.32" cy="27.83" r="0.95"/><circle id="Ellipse_5" data-name="Ellipse 5" cx="36.32" cy="31.53" r="0.95"/><circle id="Ellipse_6" data-name="Ellipse 6" cx="36.32" cy="35.23" r="0.95"/><path id="Path_43" data-name="Path 43" d="M56,5.32c-6,0-9.52,3.81-9.52,10.42h2c0-3.86,1.37-8.46,7.55-8.46s7.55,4.6,7.55,8.46h2C65.49,9.13,62,5.32,56,5.32Z"/><path id="Path_44" data-name="Path 44" d="M78.82,90.51,67.06,57.33V23.8H50.43s-.58-3.53-6.16-3.53H40.68V34.82s0,3.34-4.36,3.34S32,34.78,32,34.78V20.27H25.84s-4.78.34-4.78,4.41V55.14s0,2.12,2.75,2.12S27,55.66,27,55.66v39H37.9s1.37,0,1.37-.83a3.73,3.73,0,0,0,5,0,3.42,3.42,0,0,0,4.8,0,3.61,3.61,0,0,0,4.8,0A3.64,3.64,0,0,0,58.7,94a3.77,3.77,0,0,0,4.8,0c1.57.84,2.41,1.75,4.8,0,1.94,1,3.18,1.63,5-.27C74.91,95.61,79.77,95.56,78.82,90.51Zm-50.88-60a2.15,2.15,0,1,1,2.18-2.1,2.11,2.11,0,0,1-.65,1.49A2.14,2.14,0,0,1,27.94,30.51Zm47.8,62.9a1.61,1.61,0,0,1-1.64-1.56,1.54,1.54,0,0,1,.56-1.16h0c0-.47-.63-.85-1.38-.85s-1.37.38-1.37.85h0a1.52,1.52,0,0,1,.55,1.16,1.64,1.64,0,0,1-3.26,0,1.55,1.55,0,0,1,.53-1.16h0c0-.47-.57-.85-1.29-.85s-1.29.38-1.29.85h0a1.57,1.57,0,0,1,.55,1.16,1.64,1.64,0,0,1-3.27,0h0A1.5,1.5,0,0,1,65,90.69h0c0-.47-.61-.85-1.38-.85s-1.37.38-1.37.85h0a1.57,1.57,0,0,1,.55,1.16,1.64,1.64,0,0,1-3.27,0h0a1.57,1.57,0,0,1,.55-1.16h0c0-.47-.61-.85-1.38-.85s-1.37.38-1.37.85h0a1.57,1.57,0,0,1,.55,1.16,1.64,1.64,0,0,1-3.27,0h0a1.5,1.5,0,0,1,.55-1.16h0c0-.47-.62-.85-1.38-.85s-1.37.38-1.37.85h0a1.48,1.48,0,0,1,.55,1.16,1.64,1.64,0,0,1-3.26,0,1.52,1.52,0,0,1,.54-1.16h0c0-.47-.54-.85-1.2-.85s-1.21.38-1.21.85h0a1.52,1.52,0,0,1,.54,1.16,1.64,1.64,0,0,1-3.26,0,1.57,1.57,0,0,1,.55-1.16h0c0-.47-.65-.85-1.46-.85s-1.45.38-1.45.85h0a1.48,1.48,0,0,1,.55,1.16,1.64,1.64,0,0,1-3.26,0,1.48,1.48,0,0,1,.55-1.16h0c0-.47-.58-.85-1.29-.85s-1.38.38-1.38.85h0a1.52,1.52,0,0,1,.54,1.16,1.64,1.64,0,0,1-3.26,0c0-.46,2-7.65,2-7.65V59.38s-.12-1.07.9-1.07a.9.9,0,0,1,1,.8.41.41,0,0,1,0,.11l.21,17.88,9.35-31h4.46c4.44-.08,2.62-5.76,2.62-5.76L51.07,26.09c-.27-.68.13-.69.13-.69H65.06c.58,0,.56.36.56.36V53L60.36,39.38l2.22-5.73a.63.63,0,0,0-.12-.88.88.88,0,0,0-.22-.1c-.81-.32-1.1.27-1.1.27l-2.29,6.45L77.19,90.7a5.64,5.64,0,0,1,.19,1.15,1.6,1.6,0,0,1-1.64,1.57Z"/></g><rect class="cls-1" width="100" height="100"/></g></g></svg>