<svg xmlns="http://www.w3.org/2000/svg" viewBox="0 0 100 100"><defs><style>.cls-1{fill:none;}</style></defs><g id="Layer_2" data-name="Layer 2"><g id="Layer_1-2" data-name="Layer 1"><g id="Layer_1-3" data-name="Layer 1"><path id="Path_3" data-name="Path 3" d="M12.73,95H81.29a7.47,7.47,0,0,0,7.46-7.49h0v-75A7.47,7.47,0,0,0,81.3,5H12.73a1.48,1.48,0,0,0-1.48,1.48v87A1.49,1.49,0,0,0,12.73,95ZM85.78,12.5v75A4.49,4.49,0,0,1,81.31,92h0a7.48,7.48,0,0,0,1.5-4.49v-75A7.45,7.45,0,0,0,81.3,8h0A4.49,4.49,0,0,1,85.78,12.5Zm-6,0v75A4.49,4.49,0,0,1,75.34,92h0a7.28,7.28,0,0,0,1.49-4.49v-75A7.31,7.31,0,0,0,75.33,8h0A4.49,4.49,0,0,1,79.81,12.5ZM14.23,8H69.38a4.47,4.47,0,0,1,4.51,4.45V87.5A4.48,4.48,0,0,1,69.42,92H14.23Z"/><path id="Path_4" data-name="Path 4" d="M51.49,74H36.59a1.5,1.5,0,0,0-1.5,1.5h0v12a1.5,1.5,0,0,0,1.5,1.5h14.9A1.5,1.5,0,0,0,53,87.5h0v-12A1.5,1.5,0,0,0,51.49,74h0ZM38.08,86V83h3V80h-3V77H50v3H47v3h3v3Z"/><path id="Path_5" data-name="Path 5" d="M44.86,68.76h4c.5,0,.86-.15,1-.68s.28-1.28.45-1.91c1.06-4.08,2.09-8.09,3.2-12.11C55,48.43,56.56,42.82,58.12,37.2c.31-1.15.64-2.3.93-3.45.19-.8,0-1-.74-1.19l-1.17-.27c-1.36-.26-1.2-.56-1.87.94q-3.56,8-7.12,16L39.84,67.71c-.28.61-.15.9.52,1a5.34,5.34,0,0,0,.8,0Z"/><path id="Path_6" data-name="Path 6" d="M36.13,65.42a.86.86,0,0,0,1.21.18.85.85,0,0,0,.34-.53,1.63,1.63,0,0,0-1.11-2,1.59,1.59,0,0,0-.81,0A2.16,2.16,0,0,0,34,64.71a2.38,2.38,0,0,0,1.19,2.44,3.3,3.3,0,0,0,4.58-.84,3.81,3.81,0,0,0,.29-.52c1-2,1.72-4,2.53-6A1.71,1.71,0,0,0,42,57.59l-1-.75q-1.94-1.48-3.86-3a14.68,14.68,0,0,1-5.83-11.56,18.83,18.83,0,0,1,2.33-9.37,35.8,35.8,0,0,1,3.7-5.45c.44-.55.36-.82-.3-1S36,26.1,35.49,25.9a.73.73,0,0,0-1,.29c-.42.55-.9,1.08-1.27,1.67-.88,1.47-1.82,2.91-2.57,4.44A27.87,27.87,0,0,0,27.6,46a14.35,14.35,0,0,0,3,9C32.27,57,34.24,58.64,36,60.48c.58.56,1.25,1,1.8,1.62a3.11,3.11,0,0,1,.75,3.1,1.72,1.72,0,0,1-1.9,1.26.65.65,0,0,1-.67-.63.59.59,0,0,1,.12-.4Z"/><path id="Path_7" data-name="Path 7" d="M60.45,26.43v-.69a4.37,4.37,0,0,0-2.73-4.08,5.45,5.45,0,0,0-4.08.32c-1.12.44-2.21,1-3.34,1.36a9.06,9.06,0,0,1-7.52,0,26.68,26.68,0,0,1-5.2-3.48,19.4,19.4,0,0,0-1.73-1.24.73.73,0,0,0-1,.06.91.91,0,0,0-.11.16c-.79,1.26-1.62,2.47-2.37,3.75-.43.75-.3,1,.46,1.36a29.56,29.56,0,0,0,6.72,2.33,18.52,18.52,0,0,0,7,.16,22,22,0,0,0,6.06-2.27,14,14,0,0,1,2.26-1,1.75,1.75,0,0,1,2.26,1,1.58,1.58,0,0,1,.11.71,12.62,12.62,0,0,1-.09,1.95c0,.32,0,.47.37.52l1.44.31C60.51,28.15,60.51,28.15,60.45,26.43Z"/><path id="Path_8" data-name="Path 8" d="M60.48,30.11c0-.9-.21-1.36-.77-1.52a24.34,24.34,0,0,0-2.63-.6,1.44,1.44,0,0,0-1,.31,2.55,2.55,0,0,0-.42,2.83,1,1,0,0,0,.64.42c.7.21,1.44.36,2.16.52,1.08.25,1.5,0,1.86-1.06A8.46,8.46,0,0,0,60.48,30.11Z"/><path id="Path_9" data-name="Path 9" d="M38.62,26.79l4.94,31.47h.19a4.83,4.83,0,0,0,.12-1.08c-.27-1.86-.57-3.73-.85-5.59L39.84,31.41c-.21-1.36-.45-2.82-.66-4.22C39.12,26.87,39,26.65,38.62,26.79Z"/><path id="Path_10" data-name="Path 10" d="M45.16,54.57h.23a4.33,4.33,0,0,0,.11-1c-.25-1.76-.55-3.5-.83-5.26q-1.26-7.95-2.52-16.12c-.23-1.5-.46-3-.7-4.51,0-.27,0-.71-.59-.6Z"/><path id="Path_11" data-name="Path 11" d="M43.08,27.39,46.77,51H47a2.16,2.16,0,0,0,.21-.71c-.09-.82-.21-1.63-.33-2.45q-1.24-7.79-2.52-15.57c-.25-1.51-.47-3-.7-4.5C43.6,27.55,43.6,27.2,43.08,27.39Z"/><path id="Path_12" data-name="Path 12" d="M48.41,47.43h.17a4.15,4.15,0,0,0,.14-1q-1.11-7.19-2.25-14.38c-.23-1.5-.47-3-.71-4.51,0-.3-.12-.48-.53-.27Z"/><path id="Path_13" data-name="Path 13" d="M50,43.7h.19a2.42,2.42,0,0,0,.2-.79c-.2-1.58-.39-3.17-.65-4.75-.43-2.72-.92-5.45-1.36-8.17-.19-1.11-.35-2.19-.53-3.3-.45,0-.43.21-.39.52q.74,4.62,1.44,9.23C49.25,38.92,49.62,41.32,50,43.7Z"/><path id="Path_14" data-name="Path 14" d="M49.9,26.05c-.7.11-.4.58-.34.86.5,3.35,1,6.69,1.57,10l.51,3.23h.19a2.73,2.73,0,0,0,.12-.94q-.8-5.33-1.63-10.64C50.18,27.76,50.05,26.91,49.9,26.05Z"/><path id="Path_15" data-name="Path 15" d="M52,25.2l-.23-.07a1.29,1.29,0,0,0-.15.54c.39,2.73.82,5.37,1.23,8l.45,2.81h.18a2.74,2.74,0,0,0,.16-.89c-.22-1.63-.49-3.27-.75-4.9C52.54,28.91,52.24,27.05,52,25.2Z"/><path id="Path_16" data-name="Path 16" d="M44.85,68.76H41.2a5.34,5.34,0,0,1-.8,0c-.67-.1-.8-.37-.52-1l8.27-18.53q3.59-8,7.12-16c.67-1.5.58-1.2,1.87-.94l1.17.27c.76.17.93.4.73,1.19-.28,1.15-.61,2.3-.92,3.46C56.55,42.85,55,48.46,53.43,54.1c-1.1,4.08-2.13,8.06-3.2,12.1-.16.62-.31,1.27-.44,1.91s-.47.69-1,.68h-4Z"/><path id="Path_17" data-name="Path 17" d="M36.13,65.42a.64.64,0,0,0,.59,1,1.73,1.73,0,0,0,1.9-1.25A3.13,3.13,0,0,0,37.87,62c-.55-.58-1.22-1.06-1.8-1.62A68.23,68.23,0,0,1,30.62,55a14.41,14.41,0,0,1-3-8.95,27.85,27.85,0,0,1,3.1-13.79c.75-1.53,1.69-3,2.57-4.44.37-.59.85-1.12,1.27-1.68a.73.73,0,0,1,1-.28c.52.2,1,.34,1.58.51s.74.49.3,1a35.31,35.31,0,0,0-3.7,5.45,18.8,18.8,0,0,0-2.33,9.37,14.72,14.72,0,0,0,5.79,11.56c1.28,1,2.57,2,3.86,3l1,.75a1.71,1.71,0,0,1,.61,2.19c-.82,2-1.58,4.08-2.53,6a3.29,3.29,0,0,1-4.35,1.66,2.43,2.43,0,0,1-.52-.3A2.36,2.36,0,0,1,34,64.65,2.16,2.16,0,0,1,35.75,63a1.63,1.63,0,0,1,2,1.24,1.75,1.75,0,0,1,0,.82.88.88,0,0,1-1,.69.85.85,0,0,1-.53-.34Z"/><path id="Path_18" data-name="Path 18" d="M60.45,26.43c0,1.65,0,1.65-1.51,1.37l-1.47-.32c-.31,0-.42-.2-.37-.51A12.73,12.73,0,0,0,57.19,25a1.76,1.76,0,0,0-1.59-1.91,1.87,1.87,0,0,0-.78.11,12.82,12.82,0,0,0-2.3,1,21.94,21.94,0,0,1-6.06,2.26,18.31,18.31,0,0,1-7-.16,29.07,29.07,0,0,1-6.71-2.29c-.76-.35-.9-.65-.47-1.36.75-1.26,1.58-2.49,2.37-3.74a.72.72,0,0,1,1-.33.64.64,0,0,1,.16.11A17.57,17.57,0,0,1,37.55,20a27.68,27.68,0,0,0,5.21,3.48,9,9,0,0,0,7.51,0c1.13-.43,2.22-1,3.34-1.36a5.48,5.48,0,0,1,4.09-.33,4.4,4.4,0,0,1,2.72,4.09C60.43,26,60.45,26.2,60.45,26.43Z"/><path id="Path_19" data-name="Path 19" d="M60.48,30.11a1.74,1.74,0,0,1-.15.9c-.35,1.06-.77,1.36-1.85,1.06-.72-.16-1.46-.31-2.17-.51a1.12,1.12,0,0,1-.64-.43,2.55,2.55,0,0,1,.43-2.83,1.42,1.42,0,0,1,1-.31,24.34,24.34,0,0,1,2.63.6C60.28,28.74,60.48,29.21,60.48,30.11Z"/><path id="Path_20" data-name="Path 20" d="M38.62,26.79c.42-.14.5.08.54.39.22,1.36.45,2.81.67,4.22L43,51.61c.28,1.87.58,3.73.86,5.6a5,5,0,0,1-.13,1.08h-.19Z"/><path id="Path_21" data-name="Path 21" d="M45.16,54.57l-4.3-27.4c.59-.11.55.33.59.6.24,1.5.48,3,.71,4.51l2.52,16.11c.27,1.75.57,3.5.82,5.25a3.93,3.93,0,0,1-.11,1Z"/><path id="Path_22" data-name="Path 22" d="M43.08,27.39c.52-.19.52.16.56.43.23,1.5.45,3,.7,4.51q1.26,7.79,2.52,15.57c.12.82.24,1.63.32,2.45a2.6,2.6,0,0,1-.2.71h-.21Z"/><path id="Path_23" data-name="Path 23" d="M48.41,47.43,45.29,27.29c.41-.2.49,0,.53.27.23,1.51.48,3,.71,4.51q1.14,7.18,2.25,14.38a4.08,4.08,0,0,1-.14,1Z"/><path id="Path_24" data-name="Path 24" d="M50,43.7c-.38-2.38-.75-4.78-1.13-7.18q-.7-4.61-1.44-9.23c0-.31,0-.53.4-.52.17,1.11.34,2.19.53,3.3.46,2.72,1,5.44,1.36,8.17.26,1.58.45,3.17.64,4.75a2.4,2.4,0,0,1-.19.79Z"/><path id="Path_25" data-name="Path 25" d="M49.9,26.05c.15.86.28,1.71.42,2.55q.82,5.31,1.63,10.64a3,3,0,0,1-.12.94h-.19L51.13,37c-.53-3.35-1.07-6.69-1.58-10C49.5,26.63,49.2,26.16,49.9,26.05Z"/><path id="Path_26" data-name="Path 26" d="M52,25.2c.29,1.85.58,3.71.89,5.56.25,1.64.53,3.27.74,4.91a2.41,2.41,0,0,1-.16.88h-.17l-.45-2.8c-.42-2.73-.83-5.37-1.24-8a1.33,1.33,0,0,1,.15-.55Z"/><path id="Path_27" data-name="Path 27" d="M24.74,15.89a4.15,4.15,0,0,1,.48.11l.42.15v.34h-3v-.37A2.43,2.43,0,0,1,23,16l.37-.07V10.77a1.82,1.82,0,0,1-.4-.11l-.34-.15v-.34h2.79a5.88,5.88,0,0,1,.93.1,2.42,2.42,0,0,1,.8.33,1.5,1.5,0,0,1,.57.6,1.74,1.74,0,0,1,.22.92,1.8,1.8,0,0,1-.22.93,1.67,1.67,0,0,1-.56.62,2.11,2.11,0,0,1-.8.38,3.67,3.67,0,0,1-.94.12h-.71Zm.48-5.18h-.48v2.72h.51a1.48,1.48,0,0,0,.46-.08,1,1,0,0,0,.4-.18,1.57,1.57,0,0,0,.28-.44,1.81,1.81,0,0,0,.11-.65A1.45,1.45,0,0,0,26.15,11a1.34,1.34,0,0,0-.93-.34Z"/><path id="Path_28" data-name="Path 28" d="M29.64,16.47h-2.2v-.34l.31-.15a2,2,0,0,1,.33-.09l2.3-5.8h.67l2.24,5.81a2.42,2.42,0,0,1,.36.1,1.77,1.77,0,0,1,.31.15v.34h-2.8v-.36l.37-.15a2.62,2.62,0,0,1,.38-.09l-.51-1.43h-2l-.53,1.43a2.34,2.34,0,0,1,.77.26Zm0-2.62h1.58l-.58-1.71-.16-.78h0l-.21.79Z"/><path id="Path_29" data-name="Path 29" d="M35.36,15.72a1.07,1.07,0,0,0,.28.19,1.09,1.09,0,0,0,.47.08,1.25,1.25,0,0,0,.83-.26.84.84,0,0,0,.32-.71.79.79,0,0,0-.13-.49,3.06,3.06,0,0,0-.53-.42l-.7-.37a3.71,3.71,0,0,1-.68-.43,2.08,2.08,0,0,1-.54-.6,1.69,1.69,0,0,1-.11-1.66,1.61,1.61,0,0,1,.43-.54,2.07,2.07,0,0,1,.67-.32,3.81,3.81,0,0,1,.82-.09,8.85,8.85,0,0,1,1,0,4.13,4.13,0,0,1,.85.24v.42a1.06,1.06,0,0,1-.07.46,3.35,3.35,0,0,1-.07.44.46.46,0,0,1-.08.34h-.38l-.41-1.24a1.58,1.58,0,0,0-.31-.09,1.62,1.62,0,0,0-.44,0,1.07,1.07,0,0,0-.64.19.69.69,0,0,0-.26.57.85.85,0,0,0,.22.58,2,2,0,0,0,.53.44c.22.14.45.26.71.4a3.47,3.47,0,0,1,.7.45,2.13,2.13,0,0,1,.54.58,1.58,1.58,0,0,1,.22.82A1.66,1.66,0,0,1,38,16.06a2.66,2.66,0,0,1-1.77.49h-.57l-.56-.1a3.88,3.88,0,0,1-.45-.14,1,1,0,0,1-.26-.16V15.7a1.08,1.08,0,0,1,.07-.47c.06-.17,0-.3.09-.45s0-.27.08-.38H35Z"/><path id="Path_30" data-name="Path 30" d="M40.35,15.72a1.07,1.07,0,0,0,.28.19,1.16,1.16,0,0,0,.48.08,1.25,1.25,0,0,0,.83-.26.84.84,0,0,0,.32-.71.79.79,0,0,0-.22-.49,2.45,2.45,0,0,0-.53-.42l-.68-.37a5,5,0,0,1-.69-.43,2,2,0,0,1-.53-.6,1.69,1.69,0,0,1-.22-.9,1.65,1.65,0,0,1,.16-.76A1.6,1.6,0,0,1,40,10.5a2,2,0,0,1,.67-.31,3.23,3.23,0,0,1,.82-.1,8.51,8.51,0,0,1,1,0,3.53,3.53,0,0,1,.84.25v.87a.75.75,0,0,1-.08.44c-.08.13,0,.24-.07.34h-.37l-.42-1.24a1.81,1.81,0,0,0-.31-.09,1.62,1.62,0,0,0-.44,0,1,1,0,0,0-.64.19.69.69,0,0,0-.26.57A.77.77,0,0,0,41,12a2.48,2.48,0,0,0,.53.44c.22.14.45.26.71.4a4,4,0,0,1,.71.44,2.14,2.14,0,0,1,.53.59,1.49,1.49,0,0,1,.22.82,1.68,1.68,0,0,1-.6,1.36,2.72,2.72,0,0,1-1.87.52h-.57l-.55-.11a4,4,0,0,1-.46-.13,1.05,1.05,0,0,1-.3-.15,3.38,3.38,0,0,1,0-.45l.08-.48.09-.45a2.34,2.34,0,0,1,.09-.38H40Z"/><path id="Path_31" data-name="Path 31" d="M46.19,15.89a4.15,4.15,0,0,1,.48.11,3.12,3.12,0,0,1,.43.15v.34h-3v-.37a2.21,2.21,0,0,1,.35-.16l.38-.07V10.77a1.9,1.9,0,0,1-.39-.11l-.34-.15v-.34H47a5.88,5.88,0,0,1,.93.1,2.34,2.34,0,0,1,.8.33,1.56,1.56,0,0,1,.57.6,1.83,1.83,0,0,1,.21.92,1.79,1.79,0,0,1-.76,1.55,2.62,2.62,0,0,1-.81.38,3.67,3.67,0,0,1-.94.12h-.72Zm.46-5.21h-.49V13.4h.49a1.5,1.5,0,0,0,.47-.08,1,1,0,0,0,.43-.15,1.09,1.09,0,0,0,.29-.44,1.8,1.8,0,0,0,.18-.65A1.42,1.42,0,0,0,47.66,11,1.26,1.26,0,0,0,46.65,10.68Z"/><path id="Path_32" data-name="Path 32" d="M49.94,13.32a4.19,4.19,0,0,1,.2-1.36,2.91,2.91,0,0,1,.6-1,2.61,2.61,0,0,1,.94-.67,3.78,3.78,0,0,1,2.65,0,2.61,2.61,0,0,1,.94.67,3.06,3.06,0,0,1,.57,1,4,4,0,0,1,.21,1.36,4,4,0,0,1-.21,1.29,2.9,2.9,0,0,1-.57,1,2.52,2.52,0,0,1-.94.68,3.35,3.35,0,0,1-1.36.25,3.19,3.19,0,0,1-1.29-.25,2.37,2.37,0,0,1-.94-.68,2.72,2.72,0,0,1-.59-1A3.8,3.8,0,0,1,49.94,13.32Zm1.52,0a5.36,5.36,0,0,0,.1,1.06,2.56,2.56,0,0,0,.27.85,1.52,1.52,0,0,0,.49.55A1.22,1.22,0,0,0,53,16a.94.94,0,0,0,.65-.21,1.24,1.24,0,0,0,.44-.55,2.78,2.78,0,0,0,.25-.85,7.53,7.53,0,0,0,0-2.12,2.83,2.83,0,0,0-.28-.85,1.29,1.29,0,0,0-1.21-.77,1.12,1.12,0,0,0-.68.21,1.24,1.24,0,0,0-.45.56,2.69,2.69,0,0,0-.23.84,7.55,7.55,0,0,0-.07,1.06Z"/><path id="Path_33" data-name="Path 33" d="M58.58,15.89A1.26,1.26,0,0,1,59,16l.31.13v.34H56.54v-.37l.38-.16.33-.07V10.77a2.71,2.71,0,0,1-.74-.26v-.34h2.85a3.13,3.13,0,0,1,.91.13,1.87,1.87,0,0,1,.71.34,1.33,1.33,0,0,1,.46.56,1.76,1.76,0,0,1,.18.79,1.84,1.84,0,0,1-.31,1.07,1.9,1.9,0,0,1-.88.62l.77,1.16c.27.38.55.76.85,1.13l.43.28v.31H61l-.39-.29a5.26,5.26,0,0,1-.73-1.14c-.21-.44-.39-.86-.55-1.29h-.74ZM59,10.71a1.77,1.77,0,0,0-.46,0v2.54h.55a1,1,0,0,0,.77-.33,1.35,1.35,0,0,0,.37-1,1.39,1.39,0,0,0-.09-.57,1,1,0,0,0-.25-.39,1,1,0,0,0-.38-.22,1.24,1.24,0,0,0-.51-.08Z"/><path id="Path_34" data-name="Path 34" d="M66.55,16.47H63.47v-.35l.41-.15a2.67,2.67,0,0,1,.48-.08V10.76h-1l-.57,1.54h-.37a1.09,1.09,0,0,0-.08-.47c-.08-.19,0-.38,0-.57V10.17H68v1.09a1.62,1.62,0,0,1-.07.58,3.53,3.53,0,0,1,0,.46h-.36L67,10.76H65.73v5.13l.46.11a2.86,2.86,0,0,1,.41.15Z"/></g><rect class="cls-1" width="100" height="100"/></g></g></svg>