<svg xmlns="http://www.w3.org/2000/svg" viewBox="0 0 100 100"><defs><style>.cls-1{fill:none;}</style></defs><g id="Layer_2" data-name="Layer 2"><g id="Layer_1-2" data-name="Layer 1"><g id="Layer_1-3" data-name="Layer 1"><path id="Path_35" data-name="Path 35" d="M84.67,81.91a4.36,4.36,0,0,0-4.34,4.35v4.38a1.46,1.46,0,0,1-1.46,1.45H65.81a1.43,1.43,0,0,1-1.44-1.44h0V86.29a4.37,4.37,0,0,0,4.35-4.35V80.45H69a4.36,4.36,0,0,0,4.32-3.83l2.46-22.4a7.27,7.27,0,0,0,6-7.08V38.37a7.24,7.24,0,0,0-7.27-7.24H58.56V12.26A7.27,7.27,0,0,0,51.35,5H16.48a7.26,7.26,0,0,0-7.26,7.26h0V79a7.26,7.26,0,0,0,7.26,7.26H51.35a7.25,7.25,0,0,0,6-3.17,4.36,4.36,0,0,0,4.17,3.17v4.38A4.37,4.37,0,0,0,65.86,95H78.93a4.36,4.36,0,0,0,4.29-4.36V86.29a1.46,1.46,0,0,1,1.46-1.46h6.1V81.91Zm-5.8-43.5v8.72a4.37,4.37,0,0,1-4.35,4.35H55.65v2.86H72.9L70.5,76.28a1.47,1.47,0,0,1-1.44,1.28H56.8a1.45,1.45,0,0,1-1.44-1.25L52.64,51.44H51.35A4.35,4.35,0,0,1,47,47.09h0V38.38A4.36,4.36,0,0,1,51.34,34h1.37v4.35a4.36,4.36,0,0,0,4.35,4.37H68.67a4.37,4.37,0,0,0,4.43-4.3V34h1.36a4.36,4.36,0,0,1,4.4,4.32v.07ZM17.93,57.24H29.61V66H17.93Zm0-2.9V36.93H29.61V25.39H49.85v5.94a7.31,7.31,0,0,0-4.32,2.72H35.35V28.22H32.44v8.72H44.2a6.88,6.88,0,0,0-.15,1.43v8.76a7.27,7.27,0,0,0,6,7.08l1.36,11.73H32.44V54.34Zm0-20.32V25.39h8.7v8.7Zm46.44,5.81H61.46V34h2.91ZM67.26,34h2.91v4.35a1.45,1.45,0,0,1-1.45,1.46H67.26Zm-8.7,5.81H57.1a1.46,1.46,0,0,1-1.45-1.46h0V34h2.91Zm-5.84-8.7V22.41H15V68.89H51.59l.33,2.9H12.13V19.52h43.5V31.13ZM16.48,7.91H51.35a4.35,4.35,0,0,1,4.35,4.35h0v4.35H12.21V12.26A4.35,4.35,0,0,1,16.48,7.91ZM51.35,83.36H16.48A4.35,4.35,0,0,1,12.13,79V74.65h40.1l.22,2a4.36,4.36,0,0,0,3,3.59A4.34,4.34,0,0,1,51.35,83.36Zm8.7-1.45V80.45h5.8v1.46a1.44,1.44,0,0,1-1.42,1.45h-3A1.45,1.45,0,0,1,60,81.91h0Z"/><path id="Path_36" data-name="Path 36" d="M61.46,71.75h2.91a2.91,2.91,0,0,0,2.89-2.88V60.19a2.91,2.91,0,0,0-2.89-2.91H61.46a2.9,2.9,0,0,0-2.9,2.89v8.72a2.9,2.9,0,0,0,2.9,2.87Zm0-2.91V66h2.91v2.94Zm2.91-8.7V63H61.46V60.15Z"/><rect id="Rectangle_21" data-name="Rectangle 21" x="29.54" y="10.8" width="8.71" height="2.91"/><rect id="Rectangle_22" data-name="Rectangle 22" x="41.15" y="10.8" width="2.91" height="2.91"/><rect id="Rectangle_23" data-name="Rectangle 23" x="23.74" y="10.8" width="2.91" height="2.91"/><rect id="Rectangle_24" data-name="Rectangle 24" x="30.98" y="77.56" width="5.8" height="2.91"/><rect id="Rectangle_25" data-name="Rectangle 25" x="20.83" y="60.15" width="5.8" height="2.91"/><rect id="Rectangle_26" data-name="Rectangle 26" x="20.83" y="28.22" width="2.91" height="2.91"/><rect id="Rectangle_27" data-name="Rectangle 27" x="38.24" y="28.22" width="8.71" height="2.91"/><path id="Path_37" data-name="Path 37" d="M35.34,48.54H23.74V39.83H20.83v11.6H35.34Z"/><path id="Path_38" data-name="Path 38" d="M29.54,42.73h5.79v-2.9h-8.7v5.8h2.91Z"/><rect id="Rectangle_28" data-name="Rectangle 28" x="38.24" y="39.83" width="2.91" height="8.71"/><rect id="Rectangle_29" data-name="Rectangle 29" x="35.35" y="60.15" width="13.06" height="2.91"/><rect id="Rectangle_30" data-name="Rectangle 30" x="38.24" y="51.43" width="2.91" height="5.8"/></g><rect class="cls-1" width="100" height="100"/></g></g></svg>